# xmcd CD database file
#
# Track frame offsets:
#	150
#	22745
#	47750
#	68348
#	83666
#	106554
#	129784
#	156252
#	190769
#	227552
#	251412
#	279603
#
# Disc length: 4121 seconds
#
# Revision: 0
# Processed by: cddbd v1.5.2PL0 Copyright (c) Steve Scherf et al.
# Submitted via: CDex 1.51
#
DISCID=8210170c
DTITLE=Gordon Goodwin - Act Your Age
DYEAR=2008
DGENRE=Jazz
TTITLE0=Hit The Ground Running
TTITLE1=Watermelon Man
TTITLE2=September
TTITLE3=Yesterdays
TTITLE4=Senor Mouse
TTITLE5=Punta Del Soul
TTITLE6=Act Your Age
TTITLE7=Chance Encounters
TTITLE8=Backrow Politics
TTITLE9=East Coast Envy
TTITLE10=El Macho Muchacho
TTITLE11=Gunbo Street
EXTD=YEAR: 2008
EXTT0=
EXTT1=
EXTT2=
EXTT3=
EXTT4=
EXTT5=
EXTT6=
EXTT7=
EXTT8=
EXTT9=
EXTT10=
EXTT11=
PLAYORDER=
